<svg version="1.2" xmlns="http://www.w3.org/2000/svg" viewBox="0 0 1050 600" width="158" height="90"><style>.a{fill:#c1821f}</style><path  d="m71.8 336v-150.9h20.8v133.7h75.1v17.2zm212.2-61.3v9.1h-87.3q1.2 19.2 11.7 29.4 10.7 10 29.6 10 10.9 0 21.1-2.7 10.4-2.6 20.5-7.8v17.5q-10.2 4.3-21 6.5-10.7 2.2-21.8 2.2-27.7 0-43.9-15.7-16.1-15.8-16.1-42.7 0-27.8 15.3-44.1 15.4-16.3 41.4-16.3 23.4 0 36.9 14.7 13.6 14.7 13.6 39.9zm-86.7-5.3l67.7-0.1q-0.2-15.3-8.8-24.4-8.4-9.1-22.5-9.1-15.9 0-25.5 8.8-9.5 8.8-10.9 24.8zm147.6 66.6l-43.3-113.2h20.1l36.2 95 36.1-95h20.1l-43.3 113.2zm95.4 0v-113.2h19v113.2zm0-133.7v-23.6h19v23.6zm58.4-11.6h19.2v32.1h39.1v14.5h-39.1v61.4q0 13.9 3.8 17.8 3.9 3.9 15.8 3.9h19.5v15.6h-19.5q-22 0-30.4-8-8.4-8.1-8.4-29.3v-61.4h-13.9v-14.5h13.9zm83.3 145.3v-113.2h19v113.2zm0-133.7v-23.5h19v23.5zm142 24.9v17.4q-8.1-4.4-16.2-6.5-8.1-2.2-16.3-2.2-18.5 0-28.8 11.5-10.2 11.4-10.2 32.1 0 20.8 10.2 32.3 10.3 11.4 28.8 11.4 8.2 0 16.3-2.1 8.1-2.2 16.2-6.6v17.2q-8 3.6-16.5 5.5-8.5 1.8-18.1 1.8-26.1 0-41.5-16.1-15.4-16.1-15.4-43.4 0-27.7 15.5-43.5 15.6-15.9 42.6-15.9 8.8 0 17.2 1.8 8.3 1.7 16.2 5.3z"/><path class="a" d="m757.9 291.3v-68.5h19v67.8q0 16.1 6.4 24.2 6.4 8 19.2 8 15.4 0 24.3-9.6 9-9.6 9-26.2v-64.2h19v113.2h-19v-17.4q-7 10.3-16.2 15.4-9 4.9-21.1 4.9-20 0-30.3-12.1-10.3-12.1-10.3-35.5zm47.8-71.2zm-53.4 71.2v-68.5h19v67.8q0 16.1 6.4 24.2 6.4 8 19.2 8 15.4 0 24.3-9.6 9-9.6 9-26.2v-64.2h19v113.2h-19v-17.4q-6.9 10.3-16.1 15.4-9.1 4.9-21.2 4.9-19.9 0-30.3-12.1-10.3-12.1-10.3-35.5zm47.8-71.2zm171.6 6v17.6q-8.1-4-16.7-6-8.7-2.1-18-2.1-14.2 0-21.3 4.3-7 4.2-7 12.7 0 6.5 5.1 10.2 5 3.7 20.3 7l6.5 1.4q20.2 4.3 28.7 12 8.6 7.7 8.6 21.6 0 15.7-12.8 24.9-12.7 9.2-35 9.2-9.3 0-19.4-1.7-10.1-1.8-21.2-5.3v-19.2q10.5 5.3 20.7 8 10.3 2.7 20.3 2.7 13.4 0 20.6-4.5 7.3-4.5 7.3-12.7 0-7.6-5.3-11.6-5.2-4.1-22.8-7.8l-6.6-1.5q-17.7-3.7-25.5-11.2-7.9-7.5-7.9-20.7 0-15.9 11.6-24.6 11.5-8.7 32.8-8.7 10.6 0 19.8 1.5 9.3 1.5 17.2 4.5zm-5.6 0v17.6q-8-4-16.7-6-8.7-2.1-18-2.1-14.1 0-21.3 4.3-7 4.2-7 12.7 0 6.5 5.1 10.2 5 3.7 20.3 7l6.5 1.4q20.3 4.3 28.7 12 8.6 7.7 8.6 21.6 0 15.7-12.8 24.9-12.7 9.2-35 9.2-9.3 0-19.4-1.7-10-1.8-21.2-5.3v-19.2q10.5 5.3 20.8 8 10.2 2.7 20.2 2.7 13.4 0 20.7-4.5 7.2-4.5 7.2-12.7 0-7.6-5.3-11.6-5.1-4.1-22.8-7.8l-6.6-1.5q-17.7-3.7-25.5-11.2-7.9-7.5-7.9-20.7 0-15.9 11.6-24.6 11.6-8.7 32.8-8.7 10.6 0 19.9 1.5 9.3 1.5 17.1 4.5z"/><path  d="m123.8 362v10q-6.3-2.8-11.8-4.2-5.6-1.3-10.8-1.3-9 0-13.9 3.2-4.9 3.2-4.9 9.2 0 5 3.3 7.6 3.2 2.5 12.3 4.1l6.7 1.2q12.3 2.2 18.1 7.7 5.9 5.5 5.9 14.7 0 10.9-8 16.6-7.9 5.7-23.2 5.7-5.8 0-12.3-1.2-6.5-1.3-13.5-3.6v-10.5q6.7 3.4 13.1 5.2 6.5 1.8 12.7 1.8 9.4 0 14.6-3.5 5.1-3.4 5.1-9.8 0-5.5-3.7-8.7-3.7-3.1-12.1-4.7l-6.7-1.2q-12.3-2.2-17.8-7.1-5.5-4.8-5.5-13.5 0-10 7.6-15.8 7.6-5.7 21-5.7 5.7 0 11.6 0.9 6 1 12.2 2.9zm73.9 42.4v4.5h-46.1q0.6 9.6 6.2 14.7 5.6 5 15.6 5 5.8 0 11.2-1.3 5.4-1.3 10.8-4v8.8q-5.4 2.1-11.1 3.3-5.7 1.1-11.5 1.1-14.6 0-23.2-7.9-8.5-7.9-8.5-21.3 0-13.9 8.1-22.1 8.1-8.2 21.9-8.2 12.3 0 19.4 7.4 7.2 7.3 7.2 20zm-45.8-2.7l35.8-0.1q-0.1-7.6-4.6-12.1-4.5-4.6-11.9-4.6-8.4 0-13.5 4.4-5 4.4-5.8 12.4zm109.9-12.4q3.8-6.3 9-9.3 5.2-3 12.3-3 9.6 0 14.8 6.3 5.2 6.1 5.2 17.5v34.2h-10.1v-33.9q0-8.1-3.2-12-3.1-4-9.4-4-7.9 0-12.4 4.8-4.5 4.8-4.5 13.1v32h-10.1v-33.9q0-8.1-3.1-12-3.1-4-9.6-4-7.7 0-12.2 4.9-4.6 4.8-4.6 13v32h-10.1v-56.6h10.1v8.8q3.5-5.2 8.3-7.7 4.8-2.5 11.4-2.5 6.6 0 11.3 3.2 4.7 3.1 6.9 9.1zm61.3 45.7v-56.6h10v56.6zm0-66.9v-11.7h10.1v11.7z"/><path class="a" d="m399.6 380.6v8.7q-4.3-2.2-8.6-3.3-4.2-1.1-8.6-1.1-9.8 0-15.2 5.8-5.4 5.7-5.4 16 0 10.4 5.4 16.2 5.4 5.7 15.2 5.7 4.4 0 8.6-1.1 4.3-1.1 8.6-3.3v8.6q-4.2 1.8-8.8 2.8-4.4 0.9-9.5 0.9-13.8 0-21.9-8.1-8.2-8-8.2-21.7 0-13.8 8.2-21.7 8.3-8 22.6-8 4.6 0 9 0.9 4.4 0.9 8.6 2.7zm-3 0v8.7q-4.2-2.2-8.5-3.3-4.3-1.1-8.7-1.1-9.7 0-15.1 5.8-5.4 5.7-5.4 16 0 10.4 5.4 16.2 5.4 5.7 15.1 5.7 4.4 0 8.7-1.1 4.3-1.1 8.5-3.3v8.6q-4.2 1.8-8.7 2.8-4.5 0.9-9.5 0.9-13.9 0-22-8.1-8.1-8-8.1-21.7 0-13.8 8.2-21.7 8.2-8 22.5-8 4.6 0 9.1 0.9 4.4 0.9 8.5 2.7zm46.1 4.3q-8 0-12.7 5.9-4.7 5.8-4.7 15.9 0 10.2 4.6 16.1 4.7 5.8 12.8 5.8 8.1 0 12.8-5.9 4.7-5.8 4.7-16 0-10-4.7-15.9-4.7-5.9-12.8-5.9zm0-7.9q13.1 0 20.6 7.9 7.5 7.9 7.5 21.8 0 13.9-7.5 21.9-7.5 7.9-20.6 7.9-13.1 0-20.6-7.9-7.4-8-7.4-21.9 0-13.9 7.4-21.8 7.5-7.9 20.6-7.9zm-2.9 7.9q-8.1 0-12.8 5.9-4.7 5.8-4.7 15.9 0 10.2 4.7 16.1 4.7 5.8 12.8 5.8 8 0 12.7-5.9 4.7-5.8 4.7-16 0-10-4.7-15.9-4.7-5.9-12.7-5.9zm0-7.9q13.1 0 20.6 7.9 7.4 7.9 7.4 21.8 0 13.9-7.4 21.9-7.5 7.9-20.6 7.9-13.2 0-20.6-7.9-7.4-8-7.4-21.9 0-13.9 7.4-21.8 7.4-7.9 20.6-7.9zm100.5 23.8v34.2h-10.1v-33.9q0-8-3.4-12-3.3-4-10.1-4-8.1 0-12.8 4.8-4.7 4.8-4.7 13.1v32h-10.1v-56.6h10.1v8.8q3.6-5.1 8.4-7.6 4.9-2.6 11.3-2.6 10.6 0 16 6.1 5.4 6 5.4 17.7zm-3 0v34.2h-10v-33.9q0-8-3.4-12-3.4-4-10.2-4-8.1 0-12.8 4.8-4.7 4.8-4.7 13.1v32h-10.1v-56.6h10.1v8.8q3.6-5.1 8.5-7.6 4.9-2.6 11.3-2.6 10.5 0 15.9 6.1 5.4 6 5.4 17.7zm65.2-13.8v-30.6h10.1v78.6h-10.1v-8.5q-3.1 5.1-8 7.5-4.8 2.5-11.6 2.5-11 0-18-8.2-7-8.2-7-21.6 0-13.3 7-21.5 7-8.2 18-8.2 6.8 0 11.6 2.5 4.9 2.4 8 7.5zm-34.2 19.7q0 10.3 4.5 16.2 4.6 5.8 12.6 5.8 8 0 12.5-5.8 4.6-5.9 4.6-16.2 0-10.2-4.6-16-4.5-5.9-12.5-5.9-8 0-12.6 5.9-4.5 5.8-4.5 16zm31.3-19.7v-30.6h10v78.6h-10v-8.5q-3.2 5.1-8 7.5-4.8 2.5-11.6 2.5-11.1 0-18.1-8.2-6.9-8.2-6.9-21.6 0-13.3 6.9-21.5 7-8.2 18.1-8.2 6.8 0 11.6 2.5 4.8 2.4 8 7.5zm-34.2 19.7q0 10.3 4.5 16.2 4.6 5.8 12.5 5.8 8 0 12.6-5.8 4.6-5.9 4.6-16.2 0-10.2-4.6-16-4.6-5.9-12.6-5.9-7.9 0-12.5 5.9-4.5 5.8-4.5 16zm68.8 6v-34.3h10.1v33.9q0 8 3.4 12.1 3.3 4 10.1 4 8.1 0 12.8-4.8 4.8-4.8 4.8-13.1v-32.1h10v56.6h-10v-8.7q-3.7 5.2-8.5 7.7-4.8 2.5-11.2 2.5-10.6 0-16-6.1-5.5-6.1-5.5-17.7zm25.3-35.7zm-28.2 35.7v-34.3h10v33.9q0 8 3.4 12.1 3.4 4 10.2 4 8.1 0 12.8-4.8 4.7-4.8 4.7-13.1v-32.1h10.1v56.6h-10.1v-8.7q-3.6 5.2-8.5 7.7-4.8 2.5-11.2 2.5-10.5 0-16-6.1-5.4-6.1-5.4-17.7zm25.3-35.7zm95.5 3.6v8.7q-4.3-2.2-8.6-3.3-4.2-1.1-8.6-1.1-9.8 0-15.2 5.8-5.4 5.7-5.4 16 0 10.4 5.4 16.2 5.4 5.7 15.2 5.7 4.4 0 8.6-1.1 4.3-1.1 8.6-3.3v8.6q-4.2 1.8-8.7 2.8-4.5 0.9-9.6 0.9-13.8 0-21.9-8.1-8.1-8-8.1-21.7 0-13.8 8.1-21.7 8.3-8 22.6-8 4.6 0 9 0.9 4.5 0.9 8.6 2.7zm-2.9 0v8.7q-4.3-2.2-8.6-3.3-4.3-1.1-8.6-1.1-9.8 0-15.2 5.8-5.4 5.7-5.4 16 0 10.4 5.4 16.2 5.4 5.7 15.2 5.7 4.3 0 8.6-1.1 4.3-1.1 8.6-3.3v8.6q-4.2 1.8-8.8 2.8-4.5 0.9-9.5 0.9-13.8 0-22-8.1-8.1-8-8.1-21.7 0-13.8 8.2-21.7 8.2-8 22.5-8 4.7 0 9.1 0.9 4.4 0.9 8.6 2.7zm22.2-18.3h10.1v16.1h20.7v7.2h-20.7v30.8q0 6.9 2 8.8 2.1 2 8.4 2h10.3v7.8h-10.3q-11.6 0-16.1-4-4.4-4-4.4-14.6v-30.8h-7.3v-7.2h7.3zm-2.9 0h10.1v16.1h20.7v7.2h-20.7v30.7q0 6.9 2 8.9 2.1 2 8.3 2h10.4v7.8h-10.4q-11.6 0-16-4-4.4-4.1-4.4-14.7v-30.7h-7.4v-7.2h7.4zm72.6 22.6q-8.1 0-12.8 5.8-4.7 5.8-4.7 16 0 10.1 4.7 16 4.7 5.8 12.8 5.8 8 0 12.7-5.8 4.7-5.9 4.7-16 0-10.1-4.7-15.9-4.7-5.9-12.7-5.9zm0-7.9q13.1 0 20.6 7.9 7.5 7.8 7.5 21.8 0 13.9-7.5 21.8-7.5 7.9-20.6 7.9-13.1 0-20.6-7.9-7.4-7.9-7.4-21.8 0-14 7.4-21.8 7.5-7.9 20.6-7.9zm-2.9 7.9q-8.1 0-12.8 5.8-4.7 5.8-4.7 16 0 10.1 4.6 16 4.7 5.8 12.9 5.8 8 0 12.7-5.8 4.7-5.9 4.7-16 0-10.1-4.7-15.9-4.7-5.9-12.7-5.9zm0-7.9q13.1 0 20.5 7.9 7.5 7.8 7.5 21.8 0 13.9-7.5 21.8-7.4 7.9-20.5 7.9-13.2 0-20.7-7.9-7.4-7.9-7.4-21.8 0-14 7.4-21.8 7.5-7.9 20.7-7.9zm85 0.5v9.5q-1.7-0.9-3.7-1.3-1.9-0.4-4.3-0.4-8.6 0-13.1 5.1-4.6 5.1-4.6 14.7v29.8h-10.1v-56.6h10.1v8.8q3.2-5.1 8.3-7.6 5-2.5 12.3-2.5 1 0 2.3 0.1 1.3 0.1 2.8 0.4zm-3 0l0.1 9.5q-1.7-0.9-3.7-1.3-2-0.4-4.4-0.4-8.5 0-13.1 5.1-4.5 5.1-4.5 14.7v29.8h-10.1v-56.6h10.1v8.8q3.2-5.1 8.2-7.6 5.1-2.5 12.4-2.5 1 0 2.3 0.1 1.2 0.1 2.7 0.4zm54.6 2.5v8.8q-4.3-2-8.9-3-4.6-1-9.5-1-7.5 0-11.2 2.1-3.7 2.1-3.7 6.3 0 3.3 2.6 5.2 2.7 1.8 10.8 3.4l3.4 0.7q10.7 2.2 15.2 6.1 4.5 3.8 4.5 10.7 0 7.9-6.7 12.5-6.8 4.6-18.5 4.6-4.9 0-10.3-0.9-5.3-0.9-11.2-2.6v-9.6q5.6 2.6 11 4 5.4 1.3 10.7 1.3 7.1 0 10.9-2.2 3.8-2.3 3.8-6.4 0-3.8-2.8-5.8-2.7-2-12-3.9l-3.5-0.7q-9.4-1.8-13.5-5.6-4.1-3.8-4.1-10.3 0-8 6.1-12.4 6.1-4.3 17.3-4.3 5.6 0 10.5 0.7 4.9 0.8 9.1 2.3zm-3 0v8.8q-4.3-2-8.8-3-4.6-1-9.5-1-7.5 0-11.3 2.1-3.7 2.1-3.7 6.3 0 3.3 2.7 5.2 2.7 1.8 10.7 3.4l3.5 0.7q10.7 2.2 15.2 6.1 4.5 3.8 4.5 10.7 0 7.9-6.8 12.5-6.7 4.6-18.5 4.6-4.9 0-10.2-0.9-5.3-0.9-11.2-2.6v-9.6q5.5 2.6 10.9 4 5.4 1.3 10.7 1.3 7.1 0 10.9-2.2 3.9-2.3 3.9-6.4 0-3.8-2.8-5.8-2.7-2-12.1-3.9l-3.5-0.7q-9.3-1.8-13.4-5.6-4.2-3.8-4.2-10.3 0-8 6.1-12.4 6.1-4.3 17.4-4.3 5.5 0 10.4 0.7 5 0.8 9.1 2.3z"/></svg>